<svg xmlns="http://www.w3.org/2000/svg" xmlns:xlink="http://www.w3.org/1999/xlink" width="500" zoomAndPan="magnify" viewBox="0 0 375 374.999991" height="500" preserveAspectRatio="xMidYMid meet" version="1.0"><defs><clipPath id="3377a59ae8"><path d="M 0 62.8125 L 375 62.8125 L 375 312.5625 L 0 312.5625 Z M 0 62.8125 " clip-rule="nonzero"/></clipPath><clipPath id="b51d09d7a1"><path d="M 189 62.8125 L 375 62.8125 L 375 83 L 189 83 Z M 189 62.8125 " clip-rule="nonzero"/></clipPath><clipPath id="d09c976310"><path d="M 0 293 L 375 293 L 375 312.5625 L 0 312.5625 Z M 0 293 " clip-rule="nonzero"/></clipPath><clipPath id="b27240c04e"><path d="M 0 62.8125 L 191 62.8125 L 191 198 L 0 198 Z M 0 62.8125 " clip-rule="nonzero"/></clipPath></defs><g clip-path="url(#3377a59ae8)"><path fill="#ffffff" d="M 374.5 312.59375 L 0.484375 312.59375 L 0.484375 62.847656 L 374.5 62.847656 L 374.5 312.59375 " fill-opacity="1" fill-rule="nonzero"/></g><path fill="#d21c31" d="M 374.5 235.769531 L 0.484375 235.769531 L 0.484375 216.546875 L 374.5 216.546875 L 374.5 235.769531 " fill-opacity="1" fill-rule="nonzero"/><path fill="#d21c31" d="M 374.5 197.40625 L 189.960938 197.40625 L 189.960938 178.101562 L 374.5 178.101562 L 374.5 197.40625 " fill-opacity="1" fill-rule="nonzero"/><path fill="#d21c31" d="M 374.5 158.90625 L 189.960938 158.90625 L 189.960938 139.601562 L 374.5 139.601562 L 374.5 158.90625 " fill-opacity="1" fill-rule="nonzero"/><path fill="#d21c31" d="M 374.5 120.542969 L 189.960938 120.542969 L 189.960938 101.238281 L 374.5 101.238281 L 374.5 120.542969 " fill-opacity="1" fill-rule="nonzero"/><g clip-path="url(#b51d09d7a1)"><path fill="#d21c31" d="M 374.5 82.070312 L 189.980469 82.070312 L 189.980469 62.847656 L 374.5 62.847656 L 374.5 82.070312 " fill-opacity="1" fill-rule="nonzero"/></g><path fill="#d21c31" d="M 374.5 274.191406 L 0.484375 274.191406 L 0.484375 254.96875 L 374.5 254.96875 L 374.5 274.191406 " fill-opacity="1" fill-rule="nonzero"/><g clip-path="url(#d09c976310)"><path fill="#d21c31" d="M 374.5 312.59375 L 0.484375 312.59375 L 0.484375 293.371094 L 374.5 293.371094 L 374.5 312.59375 " fill-opacity="1" fill-rule="nonzero"/></g><g clip-path="url(#b27240c04e)"><path fill="#363570" d="M 190.429688 197.421875 L 0.484375 197.421875 L 0.484375 62.847656 L 190.429688 62.847656 L 190.429688 197.421875 " fill-opacity="1" fill-rule="nonzero"/></g><path fill="#ffffff" d="M 16.707031 68.207031 L 18.476562 73.671875 L 24.210938 73.671875 L 19.574219 77.046875 L 21.34375 82.507812 L 16.707031 79.128906 L 12.066406 82.507812 L 13.839844 77.046875 L 9.199219 73.671875 L 14.933594 73.671875 L 16.707031 68.207031 " fill-opacity="1" fill-rule="nonzero"/><path fill="#ffffff" d="M 48.101562 68.207031 L 49.871094 73.671875 L 55.605469 73.671875 L 50.96875 77.046875 L 52.738281 82.507812 L 48.101562 79.128906 L 43.460938 82.507812 L 45.234375 77.046875 L 40.59375 73.671875 L 46.328125 73.671875 L 48.101562 68.207031 " fill-opacity="1" fill-rule="nonzero"/><path fill="#ffffff" d="M 79.496094 68.207031 L 81.265625 73.671875 L 87 73.671875 L 82.363281 77.046875 L 84.132812 82.507812 L 79.496094 79.128906 L 74.855469 82.507812 L 76.628906 77.046875 L 71.988281 73.671875 L 77.722656 73.671875 L 79.496094 68.207031 " fill-opacity="1" fill-rule="nonzero"/><path fill="#ffffff" d="M 110.890625 68.207031 L 112.660156 73.671875 L 118.394531 73.671875 L 113.757812 77.046875 L 115.527344 82.507812 L 110.890625 79.128906 L 106.25 82.507812 L 108.023438 77.046875 L 103.382812 73.671875 L 109.117188 73.671875 L 110.890625 68.207031 " fill-opacity="1" fill-rule="nonzero"/><path fill="#ffffff" d="M 142.285156 68.207031 L 144.054688 73.671875 L 149.789062 73.671875 L 145.152344 77.046875 L 146.921875 82.507812 L 142.285156 79.128906 L 137.644531 82.507812 L 139.417969 77.046875 L 134.777344 73.671875 L 140.511719 73.671875 L 142.285156 68.207031 " fill-opacity="1" fill-rule="nonzero"/><path fill="#ffffff" d="M 173.679688 68.207031 L 175.449219 73.671875 L 181.183594 73.671875 L 176.546875 77.046875 L 178.316406 82.507812 L 173.679688 79.128906 L 169.039062 82.507812 L 170.8125 77.046875 L 166.171875 73.671875 L 171.90625 73.671875 L 173.679688 68.207031 " fill-opacity="1" fill-rule="nonzero"/><path fill="#ffffff" d="M 32.421875 81.640625 L 34.195312 87.105469 L 39.929688 87.105469 L 35.289062 90.480469 L 37.0625 95.945312 L 32.421875 92.566406 L 27.785156 95.945312 L 29.554688 90.480469 L 24.917969 87.105469 L 30.652344 87.105469 L 32.421875 81.640625 " fill-opacity="1" fill-rule="nonzero"/><path fill="#ffffff" d="M 63.816406 81.640625 L 65.589844 87.105469 L 71.324219 87.105469 L 66.683594 90.480469 L 68.457031 95.945312 L 63.816406 92.566406 L 59.179688 95.945312 L 60.949219 90.480469 L 56.3125 87.105469 L 62.046875 87.105469 L 63.816406 81.640625 " fill-opacity="1" fill-rule="nonzero"/><path fill="#ffffff" d="M 95.210938 81.640625 L 96.984375 87.105469 L 102.71875 87.105469 L 98.078125 90.480469 L 99.851562 95.945312 L 95.210938 92.566406 L 90.574219 95.945312 L 92.34375 90.480469 L 87.707031 87.105469 L 93.441406 87.105469 L 95.210938 81.640625 " fill-opacity="1" fill-rule="nonzero"/><path fill="#ffffff" d="M 126.605469 81.640625 L 128.378906 87.105469 L 134.113281 87.105469 L 129.472656 90.480469 L 131.246094 95.945312 L 126.605469 92.566406 L 121.96875 95.945312 L 123.738281 90.480469 L 119.101562 87.105469 L 124.835938 87.105469 L 126.605469 81.640625 " fill-opacity="1" fill-rule="nonzero"/><path fill="#ffffff" d="M 158 81.640625 L 159.773438 87.105469 L 165.507812 87.105469 L 160.867188 90.480469 L 162.640625 95.945312 L 158 92.566406 L 153.363281 95.945312 L 155.132812 90.480469 L 150.496094 87.105469 L 156.230469 87.105469 L 158 81.640625 " fill-opacity="1" fill-rule="nonzero"/><path fill="#ffffff" d="M 32.421875 108.675781 L 34.195312 114.136719 L 39.929688 114.136719 L 35.289062 117.511719 L 37.0625 122.972656 L 32.421875 119.597656 L 27.785156 122.972656 L 29.554688 117.511719 L 24.917969 114.136719 L 30.652344 114.136719 L 32.421875 108.675781 " fill-opacity="1" fill-rule="nonzero"/><path fill="#ffffff" d="M 63.816406 108.675781 L 65.589844 114.136719 L 71.324219 114.136719 L 66.683594 117.511719 L 68.457031 122.972656 L 63.816406 119.597656 L 59.179688 122.972656 L 60.949219 117.511719 L 56.3125 114.136719 L 62.046875 114.136719 L 63.816406 108.675781 " fill-opacity="1" fill-rule="nonzero"/><path fill="#ffffff" d="M 95.210938 108.675781 L 96.984375 114.136719 L 102.71875 114.136719 L 98.078125 117.511719 L 99.851562 122.972656 L 95.210938 119.597656 L 90.574219 122.972656 L 92.34375 117.511719 L 87.707031 114.136719 L 93.441406 114.136719 L 95.210938 108.675781 " fill-opacity="1" fill-rule="nonzero"/><path fill="#ffffff" d="M 126.605469 108.675781 L 128.378906 114.136719 L 134.113281 114.136719 L 129.472656 117.511719 L 131.246094 122.972656 L 126.605469 119.597656 L 121.96875 122.972656 L 123.738281 117.511719 L 119.101562 114.136719 L 124.835938 114.136719 L 126.605469 108.675781 " fill-opacity="1" fill-rule="nonzero"/><path fill="#ffffff" d="M 158 108.675781 L 159.773438 114.136719 L 165.507812 114.136719 L 160.867188 117.511719 L 162.640625 122.972656 L 158 119.597656 L 153.363281 122.972656 L 155.132812 117.511719 L 150.496094 114.136719 L 156.230469 114.136719 L 158 108.675781 " fill-opacity="1" fill-rule="nonzero"/><path fill="#ffffff" d="M 32.421875 135.703125 L 34.195312 141.164062 L 39.929688 141.164062 L 35.289062 144.539062 L 37.0625 150 L 32.421875 146.625 L 27.785156 150 L 29.554688 144.539062 L 24.917969 141.164062 L 30.652344 141.164062 L 32.421875 135.703125 " fill-opacity="1" fill-rule="nonzero"/><path fill="#ffffff" d="M 63.816406 135.703125 L 65.589844 141.164062 L 71.324219 141.164062 L 66.683594 144.539062 L 68.457031 150 L 63.816406 146.625 L 59.179688 150 L 60.949219 144.539062 L 56.3125 141.164062 L 62.046875 141.164062 L 63.816406 135.703125 " fill-opacity="1" fill-rule="nonzero"/><path fill="#ffffff" d="M 95.210938 135.703125 L 96.984375 141.164062 L 102.71875 141.164062 L 98.078125 144.539062 L 99.851562 150 L 95.210938 146.625 L 90.574219 150 L 92.34375 144.539062 L 87.707031 141.164062 L 93.441406 141.164062 L 95.210938 135.703125 " fill-opacity="1" fill-rule="nonzero"/><path fill="#ffffff" d="M 126.605469 135.703125 L 128.378906 141.164062 L 134.113281 141.164062 L 129.472656 144.539062 L 131.246094 150 L 126.605469 146.625 L 121.96875 150 L 123.738281 144.539062 L 119.101562 141.164062 L 124.835938 141.164062 L 126.605469 135.703125 " fill-opacity="1" fill-rule="nonzero"/><path fill="#ffffff" d="M 158 135.703125 L 159.773438 141.164062 L 165.507812 141.164062 L 160.867188 144.539062 L 162.640625 150 L 158 146.625 L 153.363281 150 L 155.132812 144.539062 L 150.496094 141.164062 L 156.230469 141.164062 L 158 135.703125 " fill-opacity="1" fill-rule="nonzero"/><path fill="#ffffff" d="M 32.421875 162.734375 L 34.195312 168.195312 L 39.929688 168.195312 L 35.289062 171.570312 L 37.0625 177.03125 L 32.421875 173.660156 L 27.785156 177.03125 L 29.554688 171.570312 L 24.917969 168.195312 L 30.652344 168.195312 L 32.421875 162.734375 " fill-opacity="1" fill-rule="nonzero"/><path fill="#ffffff" d="M 63.816406 162.734375 L 65.589844 168.195312 L 71.324219 168.195312 L 66.683594 171.570312 L 68.457031 177.03125 L 63.816406 173.660156 L 59.179688 177.03125 L 60.949219 171.570312 L 56.3125 168.195312 L 62.046875 168.195312 L 63.816406 162.734375 " fill-opacity="1" fill-rule="nonzero"/><path fill="#ffffff" d="M 95.210938 162.734375 L 96.984375 168.195312 L 102.71875 168.195312 L 98.078125 171.570312 L 99.851562 177.03125 L 95.210938 173.660156 L 90.574219 177.03125 L 92.34375 171.570312 L 87.707031 168.195312 L 93.441406 168.195312 L 95.210938 162.734375 " fill-opacity="1" fill-rule="nonzero"/><path fill="#ffffff" d="M 126.605469 162.734375 L 128.378906 168.195312 L 134.113281 168.195312 L 129.472656 171.570312 L 131.246094 177.03125 L 126.605469 173.660156 L 121.96875 177.03125 L 123.738281 171.570312 L 119.101562 168.195312 L 124.835938 168.195312 L 126.605469 162.734375 " fill-opacity="1" fill-rule="nonzero"/><path fill="#ffffff" d="M 158 162.734375 L 159.773438 168.195312 L 165.507812 168.195312 L 160.867188 171.570312 L 162.640625 177.03125 L 158 173.660156 L 153.363281 177.03125 L 155.132812 171.570312 L 150.496094 168.195312 L 156.230469 168.195312 L 158 162.734375 " fill-opacity="1" fill-rule="nonzero"/><path fill="#ffffff" d="M 16.707031 95.1875 L 18.476562 100.648438 L 24.210938 100.648438 L 19.574219 104.023438 L 21.34375 109.484375 L 16.707031 106.109375 L 12.066406 109.484375 L 13.839844 104.023438 L 9.199219 100.648438 L 14.933594 100.648438 L 16.707031 95.1875 " fill-opacity="1" fill-rule="nonzero"/><path fill="#ffffff" d="M 48.101562 95.1875 L 49.871094 100.648438 L 55.605469 100.648438 L 50.96875 104.023438 L 52.738281 109.484375 L 48.101562 106.109375 L 43.460938 109.484375 L 45.234375 104.023438 L 40.59375 100.648438 L 46.328125 100.648438 L 48.101562 95.1875 " fill-opacity="1" fill-rule="nonzero"/><path fill="#ffffff" d="M 79.496094 95.1875 L 81.265625 100.648438 L 87 100.648438 L 82.363281 104.023438 L 84.132812 109.484375 L 79.496094 106.109375 L 74.855469 109.484375 L 76.628906 104.023438 L 71.988281 100.648438 L 77.722656 100.648438 L 79.496094 95.1875 " fill-opacity="1" fill-rule="nonzero"/><path fill="#ffffff" d="M 110.890625 95.1875 L 112.660156 100.648438 L 118.394531 100.648438 L 113.757812 104.023438 L 115.527344 109.484375 L 110.890625 106.109375 L 106.25 109.484375 L 108.023438 104.023438 L 103.382812 100.648438 L 109.117188 100.648438 L 110.890625 95.1875 " fill-opacity="1" fill-rule="nonzero"/><path fill="#ffffff" d="M 142.285156 95.1875 L 144.054688 100.648438 L 149.789062 100.648438 L 145.152344 104.023438 L 146.921875 109.484375 L 142.285156 106.109375 L 137.644531 109.484375 L 139.417969 104.023438 L 134.777344 100.648438 L 140.511719 100.648438 L 142.285156 95.1875 " fill-opacity="1" fill-rule="nonzero"/><path fill="#ffffff" d="M 173.679688 95.1875 L 175.449219 100.648438 L 181.183594 100.648438 L 176.546875 104.023438 L 178.316406 109.484375 L 173.679688 106.109375 L 169.039062 109.484375 L 170.8125 104.023438 L 166.171875 100.648438 L 171.90625 100.648438 L 173.679688 95.1875 " fill-opacity="1" fill-rule="nonzero"/><path fill="#ffffff" d="M 16.707031 122.164062 L 18.476562 127.625 L 24.210938 127.625 L 19.574219 131 L 21.34375 136.460938 L 16.707031 133.085938 L 12.066406 136.460938 L 13.839844 131 L 9.199219 127.625 L 14.933594 127.625 L 16.707031 122.164062 " fill-opacity="1" fill-rule="nonzero"/><path fill="#ffffff" d="M 48.101562 122.164062 L 49.871094 127.625 L 55.605469 127.625 L 50.96875 131 L 52.738281 136.460938 L 48.101562 133.085938 L 43.460938 136.460938 L 45.234375 131 L 40.59375 127.625 L 46.328125 127.625 L 48.101562 122.164062 " fill-opacity="1" fill-rule="nonzero"/><path fill="#ffffff" d="M 79.496094 122.164062 L 81.265625 127.625 L 87 127.625 L 82.363281 131 L 84.132812 136.460938 L 79.496094 133.085938 L 74.855469 136.460938 L 76.628906 131 L 71.988281 127.625 L 77.722656 127.625 L 79.496094 122.164062 " fill-opacity="1" fill-rule="nonzero"/><path fill="#ffffff" d="M 110.890625 122.164062 L 112.660156 127.625 L 118.394531 127.625 L 113.757812 131 L 115.527344 136.460938 L 110.890625 133.085938 L 106.25 136.460938 L 108.023438 131 L 103.382812 127.625 L 109.117188 127.625 L 110.890625 122.164062 " fill-opacity="1" fill-rule="nonzero"/><path fill="#ffffff" d="M 142.285156 122.164062 L 144.054688 127.625 L 149.789062 127.625 L 145.152344 131 L 146.921875 136.460938 L 142.285156 133.085938 L 137.644531 136.460938 L 139.417969 131 L 134.777344 127.625 L 140.511719 127.625 L 142.285156 122.164062 " fill-opacity="1" fill-rule="nonzero"/><path fill="#ffffff" d="M 173.679688 122.164062 L 175.449219 127.625 L 181.183594 127.625 L 176.546875 131 L 178.316406 136.460938 L 173.679688 133.085938 L 169.039062 136.460938 L 170.8125 131 L 166.171875 127.625 L 171.90625 127.625 L 173.679688 122.164062 " fill-opacity="1" fill-rule="nonzero"/><path fill="#ffffff" d="M 16.707031 149.144531 L 18.476562 154.601562 L 24.210938 154.601562 L 19.574219 157.980469 L 21.34375 163.4375 L 16.707031 160.0625 L 12.066406 163.4375 L 13.839844 157.980469 L 9.199219 154.601562 L 14.933594 154.601562 L 16.707031 149.144531 " fill-opacity="1" fill-rule="nonzero"/><path fill="#ffffff" d="M 48.101562 149.144531 L 49.871094 154.601562 L 55.605469 154.601562 L 50.96875 157.980469 L 52.738281 163.4375 L 48.101562 160.0625 L 43.460938 163.4375 L 45.234375 157.980469 L 40.59375 154.601562 L 46.328125 154.601562 L 48.101562 149.144531 " fill-opacity="1" fill-rule="nonzero"/><path fill="#ffffff" d="M 79.496094 149.144531 L 81.265625 154.601562 L 87 154.601562 L 82.363281 157.980469 L 84.132812 163.4375 L 79.496094 160.0625 L 74.855469 163.4375 L 76.628906 157.980469 L 71.988281 154.601562 L 77.722656 154.601562 L 79.496094 149.144531 " fill-opacity="1" fill-rule="nonzero"/><path fill="#ffffff" d="M 110.890625 149.144531 L 112.660156 154.601562 L 118.394531 154.601562 L 113.757812 157.980469 L 115.527344 163.4375 L 110.890625 160.0625 L 106.25 163.4375 L 108.023438 157.980469 L 103.382812 154.601562 L 109.117188 154.601562 L 110.890625 149.144531 " fill-opacity="1" fill-rule="nonzero"/><path fill="#ffffff" d="M 142.285156 149.144531 L 144.054688 154.601562 L 149.789062 154.601562 L 145.152344 157.980469 L 146.921875 163.4375 L 142.285156 160.0625 L 137.644531 163.4375 L 139.417969 157.980469 L 134.777344 154.601562 L 140.511719 154.601562 L 142.285156 149.144531 " fill-opacity="1" fill-rule="nonzero"/><path fill="#ffffff" d="M 173.679688 149.144531 L 175.449219 154.601562 L 181.183594 154.601562 L 176.546875 157.980469 L 178.316406 163.4375 L 173.679688 160.0625 L 169.039062 163.4375 L 170.8125 157.980469 L 166.171875 154.601562 L 171.90625 154.601562 L 173.679688 149.144531 " fill-opacity="1" fill-rule="nonzero"/><path fill="#ffffff" d="M 16.707031 176.121094 L 18.476562 181.582031 L 24.210938 181.582031 L 19.574219 184.957031 L 21.34375 190.417969 L 16.707031 187.039062 L 12.066406 190.417969 L 13.839844 184.957031 L 9.199219 181.582031 L 14.933594 181.582031 L 16.707031 176.121094 " fill-opacity="1" fill-rule="nonzero"/><path fill="#ffffff" d="M 48.101562 176.121094 L 49.871094 181.582031 L 55.605469 181.582031 L 50.96875 184.957031 L 52.738281 190.417969 L 48.101562 187.039062 L 43.460938 190.417969 L 45.234375 184.957031 L 40.59375 181.582031 L 46.328125 181.582031 L 48.101562 176.121094 " fill-opacity="1" fill-rule="nonzero"/><path fill="#ffffff" d="M 79.496094 176.121094 L 81.265625 181.582031 L 87 181.582031 L 82.363281 184.957031 L 84.132812 190.417969 L 79.496094 187.039062 L 74.855469 190.417969 L 76.628906 184.957031 L 71.988281 181.582031 L 77.722656 181.582031 L 79.496094 176.121094 " fill-opacity="1" fill-rule="nonzero"/><path fill="#ffffff" d="M 110.890625 176.121094 L 112.660156 181.582031 L 118.394531 181.582031 L 113.757812 184.957031 L 115.527344 190.417969 L 110.890625 187.039062 L 106.25 190.417969 L 108.023438 184.957031 L 103.382812 181.582031 L 109.117188 181.582031 L 110.890625 176.121094 " fill-opacity="1" fill-rule="nonzero"/><path fill="#ffffff" d="M 142.285156 176.121094 L 144.054688 181.582031 L 149.789062 181.582031 L 145.152344 184.957031 L 146.921875 190.417969 L 142.285156 187.039062 L 137.644531 190.417969 L 139.417969 184.957031 L 134.777344 181.582031 L 140.511719 181.582031 L 142.285156 176.121094 " fill-opacity="1" fill-rule="nonzero"/><path fill="#ffffff" d="M 173.679688 176.121094 L 175.449219 181.582031 L 181.183594 181.582031 L 176.546875 184.957031 L 178.316406 190.417969 L 173.679688 187.039062 L 169.039062 190.417969 L 170.8125 184.957031 L 166.171875 181.582031 L 171.90625 181.582031 L 173.679688 176.121094 " fill-opacity="1" fill-rule="nonzero"/></svg>